<?xml version="1.0" encoding="UTF-8" standalone="no"?>
<!-- Created with Inkscape (http://www.inkscape.org/) -->

<svg
   xmlns:dc="http://purl.org/dc/elements/1.1/"
   xmlns:cc="http://creativecommons.org/ns#"
   xmlns:rdf="http://www.w3.org/1999/02/22-rdf-syntax-ns#"
   xmlns:svg="http://www.w3.org/2000/svg"
   xmlns="http://www.w3.org/2000/svg"
   xmlns:xlink="http://www.w3.org/1999/xlink"
   xmlns:sodipodi="http://sodipodi.sourceforge.net/DTD/sodipodi-0.dtd"
   xmlns:inkscape="http://www.inkscape.org/namespaces/inkscape"
   width="127"
   height="73"
   id="svg2"
   version="1.1"
   inkscape:version="0.48.2 r9819"
   sodipodi:docname="logo_adsl.svg"
   inkscape:export-filename="/var/www/adsl/app/webroot/img/logo_ave.png"
   inkscape:export-xdpi="90.000008"
   inkscape:export-ydpi="90.000008">
  <defs
     id="defs4">
    <linearGradient
       id="linearGradient3781">
      <stop
         style="stop-color:#c36f0d;stop-opacity:1;"
         offset="0"
         id="stop3783" />
      <stop
         style="stop-color:#f0b923;stop-opacity:1;"
         offset="1"
         id="stop3785" />
    </linearGradient>
    <linearGradient
       inkscape:collect="always"
       xlink:href="#linearGradient3781"
       id="linearGradient3817"
       gradientUnits="userSpaceOnUse"
       gradientTransform="matrix(1.0095058,0,0,1.0079584,-605.16418,219.69987)"
       x1="655.88013"
       y1="824.58386"
       x2="659.63654"
       y2="789.22668" />
    <linearGradient
       inkscape:collect="always"
       xlink:href="#linearGradient3781"
       id="linearGradient3843"
       gradientUnits="userSpaceOnUse"
       gradientTransform="matrix(1.0095058,0,0,1.0079584,-605.16418,219.69987)"
       x1="655.88013"
       y1="824.58386"
       x2="659.63654"
       y2="789.22668" />
    <linearGradient
       inkscape:collect="always"
       xlink:href="#linearGradient3781"
       id="linearGradient3854"
       gradientUnits="userSpaceOnUse"
       gradientTransform="matrix(1.0095058,0,0,1.0079584,-605.16418,219.69987)"
       x1="655.88013"
       y1="824.58386"
       x2="659.63654"
       y2="789.22668" />
    <linearGradient
       inkscape:collect="always"
       xlink:href="#linearGradient3781"
       id="linearGradient3860"
       gradientUnits="userSpaceOnUse"
       gradientTransform="matrix(1.0095058,0,0,1.0079584,-605.16418,211.69985)"
       x1="642.29968"
       y1="835.43048"
       x2="659.12079"
       y2="806.61566" />
    <linearGradient
       inkscape:collect="always"
       xlink:href="#linearGradient3781"
       id="linearGradient3868"
       gradientUnits="userSpaceOnUse"
       gradientTransform="matrix(1.0095058,0,0,1.0079584,-605.16418,211.69985)"
       x1="642.29968"
       y1="835.43048"
       x2="659.12079"
       y2="806.61566" />
  </defs>
  <sodipodi:namedview
     id="base"
     pagecolor="#ffffff"
     bordercolor="#666666"
     borderopacity="1.0"
     inkscape:pageopacity="0.0"
     inkscape:pageshadow="2"
     inkscape:zoom="5.7624151"
     inkscape:cx="77.413167"
     inkscape:cy="32.474177"
     inkscape:document-units="px"
     inkscape:current-layer="layer1"
     showgrid="false"
     inkscape:window-width="1366"
     inkscape:window-height="717"
     inkscape:window-x="0"
     inkscape:window-y="0"
     inkscape:window-maximized="1" />
  <metadata
     id="metadata7">
    <rdf:RDF>
      <cc:Work
         rdf:about="">
        <dc:format>image/svg+xml</dc:format>
        <dc:type
           rdf:resource="http://purl.org/dc/dcmitype/StillImage" />
        <dc:title></dc:title>
      </cc:Work>
    </rdf:RDF>
  </metadata>
  <g
     inkscape:label="Capa 1"
     inkscape:groupmode="layer"
     id="layer1"
     transform="translate(0,-979.36218)">
    <g
       id="g3862"
       transform="translate(0.49999533,0)">
      <path
         sodipodi:nodetypes="ccccccccccccccccccccccccccccccccccccsccczccccsc"
         inkscape:connector-curvature="0"
         id="path2996"
         d="m 63.412547,1018.271 -5.353712,0 c -3.522124,-0.6675 -6.503963,-2.0745 -9.560201,-3.8181 -3.556963,-1.4263 -7.266886,-2.3302 -10.962364,-3.3092 l -8.79538,-3.6909 c -4.771983,-0.7494 -7.949574,-3.4654 -11.727185,-6.2365 l -4.971301,-7.00002 c -2.9640299,-3.2909 -3.8486296,-5.88611 -4.2064893,-10.05471 -1.4422,-3.4485 -1.2416315,-3.5664 -3.9515487,-1.14546 l 0,1.90911 c -2.8816542,-0.11386 -2.2065171,1.0304 -2.1669848,3.56367 l 0.2549406,2.4182 c -2.87379028,0.64241 -1.95188945,1.56139 -1.27469281,4.07279 l 0,2.5455 4.58890021,4.70912 c 1.3957123,2.8635 3.7760663,4.3682 6.2459938,6.2364 l 3.951548,1.6546 c 2.992146,0.8606 5.292213,2.6724 7.775638,4.4546 1.929942,2.3828 4.357026,3.9474 6.883345,5.6001 1.403344,0.703 2.859061,1.2558 4.33396,1.7817 -0.374618,3.3673 -0.330442,5.9388 -0.509882,9.1638 -0.414483,1.7174 -2.002244,2.115 -3.441677,2.9273 -4.870664,1.9994 -10.635063,0.8332 -15.168854,0.7636 -1.807742,0.1 -3.571378,-3e-4 -5.353712,-0.2545 4.505516,5.7246 11.629294,9.3262 18.100651,9.8001 2.083953,-1.7764 4.367545,-3.1539 6.755874,-4.4546 1.164011,-0.8105 2.093473,-0.8909 3.441677,-0.8909 5.224637,0.4439 10.451928,0.8552 15.678725,1.2727 6.043941,0.2019 10.714814,-0.9582 15.933675,-3.5637 3.650333,-2.2091 8.295312,-4.3083 11.217295,-6.3 3.039552,0.6836 6.249204,0.2329 9.05033,0.7 3.607347,1.1365 5.88451,1.1859 8.630588,3.9287 -1.637721,-2.5803 -1.892491,-2.8302 -3.659287,-4.6923 -1.074568,-0.9927 -1.863245,-1.5723 -3.122997,-2.291 l -0.382411,-0.9546 c 2.825236,-0.2117 5.826041,0.4763 8.221778,0.9548 3.770583,1.6102 9.941933,1.7106 11.727183,1.5272 3.80442,-0.3906 6.25424,-2.3439 9.17778,-4.5818 2.2724,-2.2038 3.75442,-4.766 5.22625,-7.5091 -3.51214,-0.2135 -6.0458,0.8675 -9.30526,1.909 -3.88547,1.4013 -8.39264,1.8001 -11.85465,3.1819 -3.46201,1.3818 -5.697265,1.4 -8.922852,1.4 l -5.481181,0.3181 -1.338433,-2.1 c -2.043876,-4.2158 -5.485079,-4.6751 -8.85912,-5.7909 -2.930049,-0.73 -6.335971,-0.2517 -9.24152,0.063 -2.578611,0.2798 -5.052223,1.3222 -7.584437,1.7818 z"
         style="fill:url(#linearGradient3868);fill-opacity:1;stroke:#e6e6e6" />
      <path
         sodipodi:nodetypes="ccccc"
         inkscape:connector-curvature="0"
         id="path3001"
         d="m 72.511826,1011.698 -0.619389,5.8906 c 5.543684,2.8721 9.426899,2.8714 14.45777,1.8768 l 0.439407,-6.0046 z"
         style="fill:#000000;stroke:#cccccc;stroke-width:1px;stroke-linecap:butt;stroke-linejoin:miter;stroke-opacity:1" />
      <path
         sodipodi:nodetypes="ccccc"
         inkscape:connector-curvature="0"
         id="rect2998"
         d="m 65.029133,1012.1915 16.255308,-1.9074 11.164036,4.402 -11.776202,1.6491 z"
         style="fill:#000000;stroke:#1a1a1a;stroke-width:1;stroke-opacity:1" />
      <path
         sodipodi:nodetypes="cccccccc"
         inkscape:connector-curvature="0"
         id="path3003"
         d="m 77.804718,1013.343 c -4.680356,-0.8452 -9.171708,0.4742 -12.979562,2.1076 -1.386929,0.7379 -2.642492,1.6533 -3.90023,2.5846 l 0.411995,-1.5308 -2.360465,0.5325 1.929857,-1.5617 c 5.890941,-3.0551 11.001028,-4.7689 16.655713,-3.1219 z"
         style="fill:#d40000;stroke:none" />
    </g>
  </g>
</svg>
