<?xml version="1.0" encoding="UTF-8" standalone="no"?>
<!-- Created with Inkscape (http://www.inkscape.org/) -->

<svg
   xmlns:dc="http://purl.org/dc/elements/1.1/"
   xmlns:cc="http://creativecommons.org/ns#"
   xmlns:rdf="http://www.w3.org/1999/02/22-rdf-syntax-ns#"
   xmlns:svg="http://www.w3.org/2000/svg"
   xmlns="http://www.w3.org/2000/svg"
   xmlns:xlink="http://www.w3.org/1999/xlink"
   version="1.1"
   width="210mm"
   height="297mm"
   id="svg2">
  <defs
     id="defs4">
    <linearGradient
       id="linearGradient3846">
      <stop
         id="stop3848"
         style="stop-color:#1a1a1a;stop-opacity:1"
         offset="0" />
      <stop
         id="stop3850"
         style="stop-color:#1a1a1a;stop-opacity:0"
         offset="1" />
    </linearGradient>
    <filter
       color-interpolation-filters="sRGB"
       id="filter3805">
      <feGaussianBlur
         id="feGaussianBlur3807"
         stdDeviation="0.25669291" />
    </filter>
    <linearGradient
       x1="181.17632"
       y1="516.62555"
       x2="198.81622"
       y2="533.63208"
       id="linearGradient3852"
       xlink:href="#linearGradient3846"
       gradientUnits="userSpaceOnUse" />
    <linearGradient
       x1="181.17632"
       y1="516.62555"
       x2="198.81622"
       y2="533.63208"
       id="linearGradient2998"
       xlink:href="#linearGradient3846"
       gradientUnits="userSpaceOnUse"
       gradientTransform="matrix(-1,0,0,1,388.8125,0)" />
    <filter
       color-interpolation-filters="sRGB"
       id="filter3806">
      <feGaussianBlur
         id="feGaussianBlur3808"
         stdDeviation="0.12851562" />
    </filter>
    <filter
       color-interpolation-filters="sRGB"
       id="filter3815">
      <feGaussianBlur
         id="feGaussianBlur3817"
         stdDeviation="0.12980463" />
    </filter>
  </defs>
  <metadata
     id="metadata7">
    <rdf:RDF>
      <cc:Work
         rdf:about="">
        <dc:format>image/svg+xml</dc:format>
        <dc:type
           rdf:resource="http://purl.org/dc/dcmitype/StillImage" />
        <dc:title></dc:title>
      </cc:Work>
    </rdf:RDF>
  </metadata>
  <g
     id="layer1">
    <rect
       width="147.05367"
       height="57.378418"
       ry="0"
       x="292.65381"
       y="512.67615"
       id="rect3775"
       style="fill:#d45500;fill-opacity:1;stroke:none" />
    <text
       x="408.5206"
       y="547.12292"
       id="text3794"
       xml:space="preserve"
       style="font-size:40px;font-style:normal;font-weight:normal;line-height:125%;letter-spacing:0px;word-spacing:0px;fill:#803300;fill-opacity:1;stroke:none;font-family:Sans"><tspan
         x="408.5206"
         y="547.12292"
         id="tspan3796"
         style="font-size:20px;font-weight:bold;fill:#803300;-inkscape-font-specification:Sans Bold">Noticias</tspan></text>
    <g
       id="g3835">
      <path
         d="m 143.53125,477.71875 6.15625,6.15625 -8.28125,0 0,-6.15625 2.125,0 z m 97.875,97.875 5.9375,5.9375 0,2.34375 -5.9375,0 0,-8.28125 z"
         id="rect3827"
         style="fill:#ce4c00;fill-opacity:1;stroke:none" />
      <path
         d="m 192.71875,477.71875 54.6875,54.6875 0,49.125 -103.8125,-103.8125 49.125,0 z"
         id="rect3766"
         style="fill:#d45500;fill-opacity:1;stroke:none" />
      <path
         d="m 149.75,483.875 91.65625,91.65625 0,8.34375 -100,-100 z"
         id="path3844"
         style="fill:url(#linearGradient2998);fill-opacity:1;stroke:none" />
      <g
         transform="matrix(0.72958836,0.73747554,-0.72958836,0.73747554,351.20402,-140.14378)"
         id="g3825">
        <text
           x="305.02283"
           y="553.55865"
           id="text3827"
           xml:space="preserve"
           style="font-size:40px;font-style:normal;font-weight:normal;line-height:125%;letter-spacing:0px;word-spacing:0px;fill:#803300;fill-opacity:1;stroke:none;font-family:Sans"><tspan
             x="305.02283"
             y="553.55865"
             id="tspan3829"
             style="font-size:20px;font-weight:bold;fill:#803300;-inkscape-font-specification:Sans Bold">Noticias</tspan></text>
        <path
           d="m 346.71469,538.35694 0,2.875 0.53125,0 0,-2.53125 2.96875,0 0,-0.34375 -3.5,0 z m 18.75,0 0,2.875 0.53125,0 0,-2.53125 2.96875,0 0,-0.34375 -3.5,0 z m -58.65625,0.625 0,14.59375 0.5,0 0,-14.25 3.875,0 -0.1875,-0.34375 -4.1875,0 z m 9.5,0 0,9.40625 0.5,0.9375 0,-10 3.0625,0 0,-0.34375 -3.5625,0 z m 21.15625,0.53125 0,3.125 -1.71875,0 0,2.5 0.5,0 0,-2.15625 1.75,0 0,-3.125 2.96875,0 0,-0.34375 -3.5,0 z m -8.875,2.84375 c -1.88803,10e-6 -3.33855,0.51564 -4.40625,1.53125 -1.0612,1.01563 -1.59375,2.42188 -1.59375,4.21875 0,1.79688 0.53255,3.20313 1.59375,4.21875 0.25666,0.24414 0.53969,0.43955 0.84375,0.625 -0.1203,-0.0949 -0.23238,-0.17531 -0.34375,-0.28125 -1.0612,-1.01562 -1.59375,-2.42187 -1.59375,-4.21875 0,-1.79687 0.53255,-3.20312 1.59375,-4.21875 1.0677,-1.01561 2.54947,-1.53124 4.4375,-1.53125 1.36507,10e-6 2.50765,0.2779 3.4375,0.8125 -1.0088,-0.75967 -2.34151,-1.15624 -3.96875,-1.15625 z m 30.46875,0 c -1.97266,10e-6 -3.51172,0.51564 -4.625,1.53125 -1.11328,1.00912 -1.65625,2.41537 -1.65625,4.21875 0,1.80339 0.54297,3.20313 1.65625,4.21875 0.27207,0.24661 0.58286,0.50116 0.90625,0.6875 -0.13324,-0.099 -0.25221,-0.23245 -0.375,-0.34375 -1.11328,-1.01562 -1.6875,-2.41536 -1.6875,-4.21875 0,-1.80338 0.57422,-3.20963 1.6875,-4.21875 1.11328,-1.01561 2.65234,-1.53124 4.625,-1.53125 0.57291,10e-6 1.13411,0.0521 1.6875,0.15625 0.38608,0.0674 0.77326,0.16438 1.15625,0.28125 l 0,-0.15625 c -0.5534,-0.20181 -1.12761,-0.37108 -1.6875,-0.46875 -0.55339,-0.10416 -1.11459,-0.15624 -1.6875,-0.15625 z m 17.9375,0 c -0.75521,10e-6 -1.4948,0.0586 -2.25,0.15625 -0.75521,0.0912 -1.53255,0.22397 -2.28125,0.40625 l 0,2.65625 c 0.16697,-0.0904 0.35598,-0.14202 0.53125,-0.21875 l 0,-2.09375 c 0.7487,-0.18228 1.49479,-0.31509 2.25,-0.40625 0.7552,-0.0977 1.52604,-0.15624 2.28125,-0.15625 1.47949,10e-6 2.6394,0.2168 3.5,0.65625 -0.88375,-0.65646 -2.22299,-0.99999 -4.03125,-1 z m 13.0625,0 c -1.64063,10e-6 -2.86198,0.28387 -3.65625,0.84375 -0.79427,0.55991 -1.1875,1.4349 -1.1875,2.59375 0,1.07423 0.3125,1.87891 0.9375,2.40625 0.11938,0.10073 0.28415,0.16139 0.4375,0.25 -0.56996,-0.52711 -0.875,-1.28667 -0.875,-2.3125 0,-1.15885 0.42448,-2.03384 1.21875,-2.59375 0.79427,-0.55988 1.98437,-0.84374 3.625,-0.84375 0.64452,10e-6 1.32161,0.0586 2.03125,0.15625 0.55979,0.077 1.17572,0.19785 1.8125,0.34375 l 0,-0.21875 c -0.83334,-0.20832 -1.60287,-0.37108 -2.3125,-0.46875 -0.70964,-0.0977 -1.38673,-0.15624 -2.03125,-0.15625 z m -48.59375,0.28125 0,0.34375 3.09375,0 0,-0.34375 -3.09375,0 z m 5.25,0 0,10.9375 0.53125,0 0,-10.59375 2.96875,0 0,-0.34375 -3.5,0 z m 18.75,0 0,10.9375 0.53125,0 0,-10.59375 2.96875,0 0,-0.34375 -3.5,0 z m -54.59375,1.28125 0,0.59375 4.78125,9.0625 0.34375,0 -5.125,-9.65625 z m 67.84375,1.40625 c 0.22564,0.2431 0.34374,0.57074 0.34375,0.96875 l 0,0.28125 -2.0625,0 c -1.88803,10e-6 -3.27084,0.27605 -4.15625,0.875 -0.87891,0.59896 -1.3125,1.5612 -1.3125,2.84375 0,1.05469 0.35937,1.89844 1.0625,2.5625 0.2184,0.20237 0.46027,0.35991 0.71875,0.5 -0.0706,-0.0561 -0.15188,-0.0943 -0.21875,-0.15625 -0.70313,-0.66406 -1.0625,-1.50781 -1.0625,-2.5625 0,-1.28255 0.43359,-2.24479 1.3125,-2.84375 0.88541,-0.59895 2.29947,-0.87499 4.1875,-0.875 l 2.0625,0 0,-0.28125 c -1e-5,-0.55338 -0.22006,-0.96484 -0.65625,-1.21875 -0.0639,-0.0381 -0.1444,-0.0612 -0.21875,-0.0937 z m -48.59375,0.0937 c 0.0855,0.0835 0.14513,0.17914 0.21875,0.28125 0.40364,0.55339 0.62499,1.35808 0.625,2.40625 -1e-5,1.04818 -0.22136,1.84636 -0.625,2.40625 -0.40365,0.55339 -0.98829,0.84375 -1.75,0.84375 -0.38737,0 -0.70378,-0.0804 -1,-0.21875 0.38926,0.36766 0.89976,0.5625 1.53125,0.5625 0.76171,0 1.34635,-0.29036 1.75,-0.84375 0.40364,-0.55989 0.59374,-1.35807 0.59375,-2.40625 -1e-5,-1.04817 -0.19011,-1.85286 -0.59375,-2.40625 -0.20183,-0.27994 -0.45866,-0.48503 -0.75,-0.625 z m 7.34375,0.0625 0,4.28125 c 0,1.38021 0.30208,2.35807 0.875,2.9375 0.16484,0.16298 0.36411,0.28963 0.59375,0.40625 -0.0277,-0.0246 -0.0677,-0.0367 -0.0937,-0.0625 -0.57292,-0.57943 -0.84375,-1.55729 -0.84375,-2.9375 l 0,-4.625 -0.53125,0 z m 51.46875,0.96875 c 0.0595,0.0923 0.14294,0.18345 0.25,0.25 0.24739,0.14975 0.68098,0.24089 1.3125,0.3125 l 0.625,0.0937 c 1.46648,0.18665 2.50725,0.4918 3.1875,0.875 -0.0324,-0.0307 -0.0594,-0.0648 -0.0937,-0.0937 -0.6185,-0.52083 -1.83464,-0.89713 -3.625,-1.125 l -0.625,-0.0937 c -0.46538,-0.0528 -0.77447,-0.12355 -1.03125,-0.21875 z m -9.875,2.53125 0,0.0625 c -1e-5,0.70964 -0.20704,1.30599 -0.65625,1.78125 -0.44923,0.46875 -1.02995,0.6875 -1.6875,0.6875 -0.33838,0 -0.59919,-0.0544 -0.84375,-0.15625 0.042,0.0498 0.0742,0.11219 0.125,0.15625 0.29947,0.2474 0.72265,0.34375 1.25,0.34375 0.65755,0 1.20702,-0.21875 1.65625,-0.6875 0.44921,-0.47526 0.68749,-1.07161 0.6875,-1.78125 l 0,-0.40625 -0.53125,0 z m 12.625,0.96875 c 0.0752,0.12381 0.125,0.26287 0.125,0.4375 -1e-5,0.3711 -0.15496,0.65495 -0.5,0.84375 -0.34506,0.1888 -0.87891,0.28125 -1.5625,0.28125 -0.75521,0 -1.48308,-0.0807 -2.21875,-0.25 -0.72917,-0.16927 -1.45964,-0.41146 -2.15625,-0.75 l 0,2.65625 c 0.17754,0.0497 0.35588,0.0809 0.53125,0.125 l 0,-2.4375 c 0.69661,0.33854 1.39583,0.58073 2.125,0.75 0.73567,0.16927 1.49479,0.25 2.25,0.25 0.68359,0 1.18619,-0.0924 1.53125,-0.28125 0.34504,-0.1888 0.53124,-0.47265 0.53125,-0.84375 -1e-5,-0.3125 -0.13412,-0.53776 -0.375,-0.6875 -0.0617,-0.0411 -0.1867,-0.0576 -0.28125,-0.0937 z m -29.25,0.4375 c -0.41668,0.31901 -0.88022,0.55599 -1.375,0.71875 -0.48829,0.16276 -1.01563,0.25 -1.5625,0.25 -0.64731,0 -1.16648,-0.1574 -1.625,-0.40625 0.53653,0.48969 1.24823,0.75 2.15625,0.75 0.54687,0 1.07421,-0.0872 1.5625,-0.25 0.30579,-0.10059 0.56779,-0.24598 0.84375,-0.40625 l 0,-0.65625 z m -20.78125,0.59375 c 0.0378,0.0659 0.0745,0.11068 0.125,0.15625 0.20182,0.17578 0.61979,0.28125 1.21875,0.28125 l 1.28125,0 0,-0.34375 -1.8125,0 c -0.33846,0 -0.60085,-0.0376 -0.8125,-0.0937 z m 37.9375,1.3125 c -0.16602,0.23519 -0.35053,0.43473 -0.53125,0.625 l 0,0.65625 0.53125,0 0,-1.28125 z"
           id="path3831"
           style="font-size:40px;font-style:normal;font-weight:normal;line-height:125%;letter-spacing:0px;word-spacing:0px;fill:#732e00;fill-opacity:1;stroke:none;filter:url(#filter3806);font-family:Sans" />
        <path
           d="m 349.91736,538.34192 0,2.5 -3.125,0 0,0.375 3.5,0 0,-2.875 -0.375,0 z m 18.75,0 0,2.5 -3.125,0 0,0.375 3.5,0 0,-2.875 -0.375,0 z m -57.78125,0.625 5.125,9.625 0,-0.28125 -4.9375,-9.34375 -0.1875,0 z m 8.6875,0 0,14.21875 -4.03125,0 0.1875,0.375 4.1875,0 0,-14.59375 -0.34375,0 z m 21.09375,0.53125 0,2.75 0.375,0 0,-2.75 -0.375,0 z m 3.59375,3.125 0,2.125 -3.59375,0 0,4.625 c -10e-6,0.50782 0.11067,0.88021 0.3125,1.0625 0.0505,0.0439 0.11222,0.0608 0.1875,0.0937 -0.0844,-0.19225 -0.125,-0.45292 -0.125,-0.78125 l 0,-4.625 3.59375,0 0,-2.5 -0.375,0 z m 5.65625,0 0,10.5625 -3.125,0 0,0.375 3.5,0 0,-10.9375 -0.375,0 z m 18.75,0 0,10.5625 -3.125,0 0,0.375 3.5,0 0,-10.9375 -0.375,0 z m -6.53125,0.21875 0,2.59375 c -0.47527,-0.32551 -0.95574,-0.56249 -1.4375,-0.71875 -0.47527,-0.15624 -0.98569,-0.21874 -1.5,-0.21875 -0.97657,1e-5 -1.73438,0.27084 -2.28125,0.84375 -0.54037,0.56641 -0.8125,1.35287 -0.8125,2.375 0,1.02214 0.27213,1.83334 0.8125,2.40625 0.0756,0.0783 0.16621,0.15129 0.25,0.21875 -0.45516,-0.5597 -0.6875,-1.31191 -0.6875,-2.25 0,-1.02213 0.27213,-1.80859 0.8125,-2.375 0.54687,-0.57291 1.30468,-0.87499 2.28125,-0.875 0.51431,1e-5 1.02473,0.0938 1.5,0.25 0.48176,0.15626 0.93098,0.39324 1.40625,0.71875 l 0,-2.84375 c -0.1177,-0.0429 -0.22576,-0.0868 -0.34375,-0.125 z m 31.96875,0.0312 0,2.375 c -0.74871,-0.31249 -1.45964,-0.56249 -2.15625,-0.71875 -0.69662,-0.15624 -1.38152,-0.21874 -2,-0.21875 -0.66407,10e-6 -1.14323,0.0807 -1.46875,0.25 -0.31901,0.16277 -0.46875,0.40496 -0.46875,0.75 0,0.27996 0.10286,0.50652 0.34375,0.65625 0.0152,0.009 0.0458,0.0223 0.0625,0.0312 -0.0408,-0.0932 -0.0625,-0.19722 -0.0625,-0.3125 0,-0.34504 0.18099,-0.58723 0.5,-0.75 0.32552,-0.16926 0.80468,-0.24999 1.46875,-0.25 0.61848,10e-6 1.27213,0.0625 1.96875,0.21875 0.69661,0.15626 1.43879,0.40626 2.1875,0.71875 l 0,-2.65625 c -0.12875,-0.0322 -0.24921,-0.0642 -0.375,-0.0937 z m -84.03125,0.3125 0,10 -3.21875,0 0,0.375 3.5625,0 0,-9.71875 -0.34375,-0.65625 z m 71.28125,0.375 c 0.6257,0.78244 0.93749,1.89735 0.9375,3.375 l 0,6.25 -3.15625,0 0,0.375 3.5,0 0,-6.25 c -10e-6,-1.7294 -0.42419,-2.97288 -1.28125,-3.75 z m -48.28125,0.34375 c 0.81247,0.97413 1.21874,2.24024 1.21875,3.8125 -10e-6,1.79688 -0.53256,3.20313 -1.59375,4.21875 -1.0547,1.01563 -2.52475,1.53125 -4.40625,1.53125 -1.81584,0 -3.25545,-0.46681 -4.3125,-1.40625 0.078,0.0861 0.16524,0.16888 0.25,0.25 1.0677,1.01563 2.54947,1.53125 4.4375,1.53125 1.8815,0 3.35155,-0.51562 4.40625,-1.53125 1.06119,-1.01562 1.59374,-2.42187 1.59375,-4.21875 -10e-6,-1.78754 -0.54355,-3.1731 -1.59375,-4.1875 z m 43,0.40625 c -0.7487,10e-6 -1.44922,0.069 -2.09375,0.21875 -0.50454,0.11722 -0.98882,0.29103 -1.4375,0.5 l 0,0.53125 c 0.55338,-0.29947 1.16797,-0.5065 1.8125,-0.65625 0.64453,-0.14973 1.3138,-0.21874 2.0625,-0.21875 0.92447,10e-6 1.62629,0.11459 2.0625,0.375 -0.10244,-0.13825 -0.21059,-0.27929 -0.375,-0.375 -0.43621,-0.26041 -1.10678,-0.37499 -2.03125,-0.375 z m -47.78125,0.1875 c -0.77475,10e-6 -1.3711,0.25261 -1.78125,0.8125 -0.40365,0.55339 -0.59375,1.35808 -0.59375,2.40625 0,1.04818 0.1901,1.84636 0.59375,2.40625 0.10806,0.1458 0.24163,0.26762 0.375,0.375 -0.40365,-0.55989 -0.59375,-1.35807 -0.59375,-2.40625 0,-1.04817 0.1901,-1.85286 0.59375,-2.40625 0.41015,-0.55989 1.0065,-0.84374 1.78125,-0.84375 0.5435,10e-6 0.98255,0.15245 1.34375,0.4375 -0.40237,-0.5336 -0.97513,-0.78124 -1.71875,-0.78125 z m 7.5,0.25 0,0.375 1.375,0 0,-0.375 -1.375,0 z m 50.15625,3.125 c 0.0843,0.0989 0.1808,0.1965 0.28125,0.28125 0.625,0.52735 1.69401,0.89844 3.25,1.09375 l 0.625,0.0937 c 0.6474,0.0772 1.06065,0.17568 1.3125,0.3125 -0.0599,-0.12751 -0.12053,-0.23201 -0.25,-0.3125 -0.23438,-0.15625 -0.72787,-0.29036 -1.4375,-0.375 l -0.59375,-0.0937 c -1.48956,-0.18697 -2.55113,-0.50874 -3.1875,-1 z m 8.375,0.0937 c 0.3479,0.50171 0.49999,1.16504 0.5,2 -10e-6,1.16537 -0.42189,2.03906 -1.28125,2.625 -0.85938,0.58594 -2.13803,0.875 -3.84375,0.875 -0.72266,0 -1.47526,-0.0703 -2.25,-0.1875 -0.65022,-0.0937 -1.31713,-0.22862 -2,-0.40625 l 0,0.28125 c 0.8138,0.22786 1.60677,0.38932 2.375,0.5 0.77474,0.11719 1.52734,0.1875 2.25,0.1875 1.70572,0 2.98437,-0.28906 3.84375,-0.875 0.85936,-0.58594 1.28124,-1.45963 1.28125,-2.625 -10e-6,-1.06143 -0.31279,-1.85211 -0.875,-2.375 z m -17.375,0.28125 c -0.72917,0 -1.28516,0.12761 -1.65625,0.375 -0.36459,0.2474 -0.53125,0.61198 -0.53125,1.09375 0,0.44271 0.14453,0.8086 0.4375,1.0625 0.0353,0.0292 0.0865,0.0368 0.125,0.0625 -0.12859,-0.21043 -0.21875,-0.4567 -0.21875,-0.75 0,-0.48177 0.19791,-0.84635 0.5625,-1.09375 0.37109,-0.24739 0.92708,-0.375 1.65625,-0.375 l 1.4375,0 0,-0.375 -1.8125,0 z m -14.46875,2.125 c -0.11387,0.0872 -0.22404,0.14324 -0.34375,0.21875 l 0,2.28125 c -0.54688,0.20182 -1.1211,0.33984 -1.6875,0.4375 -0.5599,0.10417 -1.1211,0.15625 -1.6875,0.15625 -1.88399,0 -3.36862,-0.45457 -4.46875,-1.375 0.0699,0.0719 0.14382,0.15039 0.21875,0.21875 1.11328,1.00911 2.65234,1.53125 4.625,1.53125 0.5664,0 1.1276,-0.0521 1.6875,-0.15625 0.5664,-0.0977 1.10937,-0.26693 1.65625,-0.46875 l 0,-2.84375 z m -18.5,0.6875 0,2.125 -3,0 c -1.27304,0 -2.18947,-0.2626 -2.78125,-0.75 0.0627,0.0849 0.11589,0.17757 0.1875,0.25 0.57942,0.57292 1.55729,0.875 2.9375,0.875 l 3,0 0,-2.5 -0.34375,0 z m 34.78125,0.5 c -0.46876,0.66406 -1.00782,1.16276 -1.59375,1.46875 -0.58594,0.29948 -1.28516,0.4375 -2.125,0.4375 -1.11539,0 -2.01362,-0.33127 -2.71875,-0.96875 0.0964,0.11934 0.19725,0.2349 0.3125,0.34375 0.70963,0.65755 1.64843,1 2.78125,1 0.83984,0 1.53906,-0.16927 2.125,-0.46875 0.43945,-0.22949 0.84521,-0.53784 1.21875,-0.96875 l 0,-0.84375 z"
           id="path3833"
           style="font-size:40px;font-style:normal;font-weight:normal;line-height:125%;letter-spacing:0px;word-spacing:0px;fill:#973c00;fill-opacity:1;stroke:none;filter:url(#filter3815);font-family:Sans" />
      </g>
    </g>
  </g>
</svg>
